# xmcd
#
# Track frame offsets: 
#        150
#        27293
#        46022
#        67122
#        84308
#        105340
#        124623
#        141372
#        165871
#        183708
#        206655
#        229574
#
# Disc length: 3349 seconds
#
# Revision: 0
# Processed by: cddbd v1.5.2PL0 Copyright (c) Steve Scherf et al.
# Submitted via: ExactAudioCopyFreeDBPlugin 1.0
#
DISCID=960d130c
DTITLE=Dr. Wu' and Friends - Texas Blues Project Vol. 4: Hangin' with 
DTITLE=Dr. Wu'
DYEAR=2014
DGENRE=Bluesrock
TTITLE0=Need A Witness
TTITLE1=Shouda, Couda, Wouda
TTITLE2=When Your Lips Start Moving
TTITLE3=Voodoo Doll (Hendrix Slight Revisit)
TTITLE4=A Handyman
TTITLE5=My Man's Specialty
TTITLE6=She's No Good For Me
TTITLE7=Life Ain't No Fair
TTITLE8=Gonna Be Days Like That
TTITLE9=Full Time Fool
TTITLE10=Best Part of My Life
TTITLE11=Slow Rollin' Train (Movie Version)
EXTD=
EXTT0=
EXTT1=
EXTT2=
EXTT3=
EXTT4=
EXTT5=
EXTT6=
EXTT7=
EXTT8=
EXTT9=
EXTT10=
EXTT11=
PLAYORDER=
